<mxfile host="app.diagrams.net" modified="2024-04-23T23:58:42.063Z" agent="Mozilla/5.0 (Macintosh; Intel Mac OS X 10_15_7) AppleWebKit/537.36 (KHTML, like Gecko) Chrome/124.0.0.0 Safari/537.36" version="24.2.8" etag="_jQVfLpxb0M-jkK_J96b" type="github">
  <diagram name="페이지-1" id="zKDdPDgcYmXWAZYSiqfE">
    <mxGraphModel>
      <root>
        <mxCell id="0" />
        <mxCell id="1" parent="0" />
      </root>
    </mxGraphModel>
  </diagram>
</mxfile>
